<svg width="20" height="20" viewBox="0 0 20 20" fill="none" xmlns="http://www.w3.org/2000/svg">
    <path d="M6.66602 4.5835L6.80415 3.7547C6.96488 2.79032 7.79926 2.0835 8.77694 2.0835L11.2218 2.0835C12.1994 2.0835 13.0338 2.79032 13.1945 3.7547L13.3327 4.5835" stroke="#6DB2DE" stroke-width="2" stroke-linecap="round"/>
    <path d="M6.66536 4.5835H3.66536C2.56079 4.5835 1.66536 5.47892 1.66536 6.58349V15.9168C1.66536 17.0214 2.56079 17.9168 3.66536 17.9168H16.332C17.4366 17.9168 18.332 17.0214 18.332 15.9168V6.5835C18.332 5.47893 17.4366 4.5835 16.332 4.5835H13.332" stroke="#6DB2DE" stroke-width="2" stroke-linecap="round"/>
    <path d="M13.5078 11.3198C13.5078 9.37656 11.9368 7.80127 9.99901 7.80127C8.06117 7.80127 6.49023 9.37656 6.49023 11.3198C6.49023 13.263 8.06117 14.8383 9.99901 14.8383C11.9368 14.8383 13.5078 13.263 13.5078 11.3198Z" stroke="#6DB2DE" stroke-width="2"/>
</svg>
