<svg width="24" height="24" viewBox="0 0 24 24" fill="none" xmlns="http://www.w3.org/2000/svg">
    <path d="M2 5L2 16.5C2 17.4665 2.7835 18.25 3.75 18.25L15 18.25L15 5C15 4.0335 14.2165 3.25 13.25 3.25L3.75 3.25C2.7835 3.25 2 4.0335 2 5Z" stroke="white" stroke-width="2"/>
    <path d="M15 6.59375L15 18.25L21 18.25C21.5523 18.25 22 17.8023 22 17.25L22 10.8665C22 10.4843 21.8905 10.1102 21.6845 9.78835L19.295 6.0547C19.1112 5.7675 18.7937 5.59375 18.4527 5.59375L16 5.59375C15.4477 5.59375 15 6.04147 15 6.59375Z" stroke="white" stroke-width="2"/>
    <path d="M22 10.25H15" stroke="white" stroke-width="2"/>
    <path d="M20 19.5C20 18.8096 19.4404 18.25 18.75 18.25C18.0596 18.25 17.5 18.8096 17.5 19.5C17.5 20.1904 18.0596 20.75 18.75 20.75C19.4404 20.75 20 20.1904 20 19.5Z" stroke="white" stroke-width="2"/>
    <path d="M6.5 19.5C6.5 18.8096 5.94036 18.25 5.25 18.25C4.55964 18.25 4 18.8096 4 19.5C4 20.1904 4.55964 20.75 5.25 20.75C5.94036 20.75 6.5 20.1904 6.5 19.5Z" stroke="white" stroke-width="2"/>
</svg>
