<svg width="19" height="20" viewBox="0 0 19 20" fill="none" xmlns="http://www.w3.org/2000/svg">
    <g clip-path="url(#clip0_553_13048)">
        <path d="M8.67104 4.02906H5.37104C4.05091 4.02906 3.39085 4.02906 2.88663 4.28597C2.44311 4.51196 2.08251 4.87255 1.85652 5.31608C1.59961 5.8203 1.59961 6.48036 1.59961 7.80049V14.4005C1.59961 15.7206 1.59961 16.3807 1.85652 16.8849C2.08251 17.3284 2.44311 17.689 2.88663 17.915C3.39085 18.1719 4.05091 18.1719 5.37104 18.1719H11.971C13.2912 18.1719 13.9512 18.1719 14.4554 17.915C14.899 17.689 15.2596 17.3284 15.4856 16.8849C15.7425 16.3807 15.7425 15.7206 15.7425 14.4005V11.1005M6.31387 13.4576H7.62959C8.01394 13.4576 8.20612 13.4576 8.38697 13.4142C8.54732 13.3757 8.7006 13.3122 8.8412 13.2261C8.99978 13.1289 9.13567 12.993 9.40746 12.7212L16.921 5.20763C17.5719 4.55672 17.5719 3.50139 16.921 2.85049C16.2701 2.19958 15.2148 2.19958 14.5639 2.85048L7.05029 10.3641C6.77851 10.6359 6.64262 10.7717 6.54544 10.9303C6.45928 11.0709 6.39579 11.2242 6.35729 11.3846C6.31387 11.5654 6.31387 11.7576 6.31387 12.1419V13.4576Z" stroke="white" stroke-width="1.57143" stroke-linecap="round" stroke-linejoin="round"/>
    </g>
    <defs>
        <clipPath id="clip0_553_13048">
            <rect width="18.8571" height="18.8571" fill="white" transform="translate(0.0283203 0.885742)"/>
        </clipPath>
    </defs>
</svg>
