<svg width="24" height="25" viewBox="0 0 24 25" fill="none" xmlns="http://www.w3.org/2000/svg">
    <path d="M2.75 14.213L10.5875 3.44727C11.1521 2.67172 12.0536 2.21295 13.0129 2.21295H13.0688C14.0134 2.21295 14.9029 2.6579 15.4694 3.41384L21.25 11.1272" stroke="#6B46D6" stroke-width="2" stroke-linecap="round"/>
    <path d="M17.75 6.21295C17.438 6.21295 17.1199 6.33782 16.8136 6.53609C15.9025 7.12597 14.5975 7.12597 13.6864 6.53609C13.3801 6.33782 13.062 6.21295 12.75 6.21295C12.4129 6.21295 12.0688 6.35867 11.7401 6.58523C10.8807 7.17767 9.61098 7.18493 8.75 6.59477V6.59477" stroke="#6B46D6" stroke-width="2"/>
    <path d="M19.25 15.213L2.75 15.213V13.213L19.25 13.213V15.213ZM19.25 19.213L12.25 19.213V17.213L19.25 17.213V19.213ZM22.25 16.213C22.25 17.8698 20.9069 19.213 19.25 19.213V17.213C19.8023 17.213 20.25 16.7652 20.25 16.213H22.25ZM20.25 16.213C20.25 15.6607 19.8023 15.213 19.25 15.213V13.213C20.9069 13.213 22.25 14.5561 22.25 16.213H20.25Z" fill="#6B46D6"/>
    <path d="M17.25 23.213C17.8023 23.213 18.25 22.7652 18.25 22.213C18.25 21.6607 17.8023 21.213 17.25 21.213V23.213ZM17.25 19.213C17.8023 19.213 18.25 18.7652 18.25 18.213C18.25 17.6607 17.8023 17.213 17.25 17.213V19.213ZM9.25 23.213H17.25V21.213H9.25V23.213ZM9.25 19.213H17.25V17.213H9.25V19.213ZM6.25 20.213C6.25 21.8698 7.59315 23.213 9.25 23.213V21.213C8.69772 21.213 8.25 20.7652 8.25 20.213H6.25ZM8.25 20.213C8.25 19.6607 8.69772 19.213 9.25 19.213V17.213C7.59315 17.213 6.25 18.5561 6.25 20.213H8.25Z" fill="#6B46D6"/>
</svg>
