<svg width="24" height="24" viewBox="0 0 24 24" fill="none" xmlns="http://www.w3.org/2000/svg">
    <path d="M20.1905 8.067L19.5952 8.87056L20.1905 8.067ZM3.80954 8.067L3.21432 7.26345L3.80954 8.067ZM2 9.67412V20H4V9.67412H2ZM5 23H19V21H5V23ZM22 20V9.67412H20V20H22ZM20.7857 7.26345L13.7857 2.07826L12.5952 3.68538L19.5952 8.87056L20.7857 7.26345ZM10.2143 2.07826L3.21432 7.26345L4.40477 8.87056L11.4048 3.68538L10.2143 2.07826ZM13.7857 2.07826C12.7249 1.29249 11.2751 1.29249 10.2143 2.07826L11.4048 3.68538C11.7584 3.42345 12.2416 3.42345 12.5952 3.68538L13.7857 2.07826ZM22 9.67412C22 8.72356 21.5495 7.82925 20.7857 7.26345L19.5952 8.87056C19.8498 9.05916 20 9.35727 20 9.67412H22ZM19 23C20.6569 23 22 21.6569 22 20H20C20 20.5523 19.5523 21 19 21V23ZM2 20C2 21.6569 3.34315 23 5 23V21C4.44771 21 4 20.5523 4 20H2ZM4 9.67412C4 9.35727 4.15016 9.05916 4.40477 8.87056L3.21432 7.26345C2.45049 7.82925 2 8.72356 2 9.67412H4Z" fill="#6B46D6"/>
    <path d="M7.5 22C7.5 22.5523 7.94772 23 8.5 23C9.05228 23 9.5 22.5523 9.5 22H7.5ZM14.5 22C14.5 22.5523 14.9477 23 15.5 23C16.0523 23 16.5 22.5523 16.5 22H14.5ZM9.5 22V15H7.5V22H9.5ZM10 14.5H14V12.5H10V14.5ZM14.5 15V22H16.5V15H14.5ZM14 14.5C14.2761 14.5 14.5 14.7239 14.5 15H16.5C16.5 13.6193 15.3807 12.5 14 12.5V14.5ZM9.5 15C9.5 14.7239 9.72386 14.5 10 14.5V12.5C8.61929 12.5 7.5 13.6193 7.5 15H9.5Z" fill="#6B46D6"/>
</svg>
