<svg width="37" height="38" viewBox="0 0 37 38" fill="none" xmlns="http://www.w3.org/2000/svg">
    <path d="M33.617 15.8991H32.3752V15.8334H18.5002V22.1667H27.2129C25.9418 25.8535 22.5262 28.5 18.5002 28.5C13.3919 28.5 9.25016 24.2464 9.25016 19C9.25016 13.7536 13.3919 9.50002 18.5002 9.50002C20.8581 9.50002 23.0034 10.4136 24.6368 11.9059L28.9974 7.42744C26.244 4.79198 22.5609 3.16669 18.5002 3.16669C9.98631 3.16669 3.0835 10.2561 3.0835 19C3.0835 27.744 9.98631 34.8334 18.5002 34.8334C27.014 34.8334 33.9168 27.744 33.9168 19C33.9168 17.9384 33.8105 16.9021 33.617 15.8991Z" fill="#FFC107"/>
    <path d="M4.86084 11.6304L9.92599 15.4454C11.2965 11.9605 14.6157 9.50002 18.5 9.50002C20.8579 9.50002 23.0032 10.4136 24.6366 11.9059L28.9972 7.42744C26.2438 4.79198 22.5607 3.16669 18.5 3.16669C12.5784 3.16669 7.44313 6.60015 4.86084 11.6304Z" fill="#FF3D00"/>
    <path d="M18.5001 34.8333C22.4822 34.8333 26.1005 33.2682 28.8362 30.723L24.0647 26.5762C22.4649 27.8258 20.51 28.5016 18.5001 28.5C14.4902 28.5 11.0854 25.874 9.80277 22.2094L4.77539 26.1875C7.32685 31.3152 12.5084 34.8333 18.5001 34.8333Z" fill="#4CAF50"/>
    <path d="M33.6168 15.899H32.375V15.8333H18.5V22.1666H27.2127C26.6047 23.9213 25.5095 25.4546 24.0623 26.577L24.0646 26.5754L28.8361 30.7222C28.4985 31.0373 33.9167 26.9166 33.9167 19C33.9167 17.9384 33.8103 16.9021 33.6168 15.899Z" fill="#2EB4FF"/>
</svg>
