<svg width="20" height="18" viewBox="0 0 20 18" fill="none" xmlns="http://www.w3.org/2000/svg">
    <path fill-rule="evenodd" clip-rule="evenodd" d="M0.833008 1.91683C0.833008 1.45659 1.2061 1.0835 1.66634 1.0835H16.6663C17.1266 1.0835 17.4997 1.45659 17.4997 1.91683V6.50016H15.833V2.75016H2.49967V14.4168H7.49967V16.0835H1.66634C1.2061 16.0835 0.833008 15.7104 0.833008 15.2502V1.91683Z" fill="white"/>
    <path fill-rule="evenodd" clip-rule="evenodd" d="M1.66602 4.4165H16.666V6.08317H1.66602V4.4165Z" fill="white"/>
    <path fill-rule="evenodd" clip-rule="evenodd" d="M4.16699 3.16667V0.25H5.83366V3.16667H4.16699Z" fill="white"/>
    <path fill-rule="evenodd" clip-rule="evenodd" d="M12.5 3.16667V0.25H14.1667V3.16667H12.5Z" fill="white"/>
    <path fill-rule="evenodd" clip-rule="evenodd" d="M13.7497 6.9165C10.7581 6.9165 8.33301 9.34163 8.33301 12.3332C8.33301 15.3247 10.7581 17.7498 13.7497 17.7498C16.7412 17.7498 19.1663 15.3247 19.1663 12.3332C19.1663 9.34163 16.7412 6.9165 13.7497 6.9165ZM12.9163 11.4998V10.2498H14.583V11.4998H15.833V13.1665H14.583V14.4165H12.9163V13.1665H11.6663V11.4998H12.9163Z" fill="white"/>
</svg>
