<svg width="24" height="24" viewBox="0 0 24 24" fill="none" xmlns="http://www.w3.org/2000/svg">
    <path d="M9.02051 20C9.02051 20.625 9.09395 21.3497 9.74544 21.8021C10.3969 22.2546 11.1971 22.5 12.0205 22.5C12.8439 22.5 13.6441 22.2546 14.2956 21.8021C14.9471 21.3497 15.0205 20.625 15.0205 20" stroke="#0A0A0A" stroke-width="2" stroke-linecap="round" stroke-linejoin="round"/>
    <path fill-rule="evenodd" clip-rule="evenodd" d="M5.51976 10.5C5.51976 6.91015 8.42991 4 12.0198 4V2C7.32534 2 3.51976 5.80558 3.51976 10.5V13.6074C3.51976 14.295 3.29675 14.964 2.8842 15.5141L2.62113 15.8648C2.33632 16.2446 1.86001 16.9809 2.03978 17.8658C2.32136 19.2517 3.53141 19.721 4.44304 19.8851C5.19812 20.021 6.07585 20.0109 6.74898 20.0032C6.89246 20.0015 7.02671 20 7.14843 20H12.0198V18H7.14843C6.97836 18 6.8098 18.0016 6.64347 18.0032C5.97675 18.0095 5.34581 18.0155 4.79737 17.9168C4.11699 17.7943 4.02801 17.6006 4.00083 17.4728C4.00142 17.4643 4.00491 17.4405 4.02192 17.3965C4.0542 17.3129 4.11771 17.2027 4.22113 17.0648L4.4842 16.7141C5.15639 15.8178 5.51976 14.7277 5.51976 13.6074V10.5ZM4.00078 17.4765C4.00074 17.4765 4.00069 17.4758 4.00075 17.4743L4.00078 17.4765Z" fill="#0A0A0A"/>
    <path fill-rule="evenodd" clip-rule="evenodd" d="M18.5206 10.5C18.5206 6.91015 15.6096 4 12.0198 4V2C16.7142 2 20.5206 5.80558 20.5206 10.5V13.6074C20.5206 14.295 20.7436 14.964 21.1561 15.5141L21.4192 15.8648C21.704 16.2446 22.1803 16.9809 22.0005 17.8658C21.719 19.2517 20.5089 19.721 19.5973 19.8851C18.8422 20.021 17.9645 20.0109 17.2913 20.0032C17.1479 20.0015 17.0136 20 16.8919 20H12.0198V18H16.8919C17.062 18 17.2305 18.0016 17.3969 18.0032C18.0636 18.0095 18.6945 18.0155 19.243 17.9168C19.9233 17.7943 20.0123 17.6006 20.0395 17.4728C20.0389 17.4643 20.0354 17.4405 20.0184 17.3965C19.9861 17.3129 19.9226 17.2027 19.8192 17.0648L19.5561 16.7141C18.8839 15.8178 18.5206 14.7277 18.5206 13.6074V10.5ZM20.0395 17.4765C20.0396 17.4765 20.0396 17.4758 20.0396 17.4743L20.0395 17.4765Z" fill="#0A0A0A"/>
</svg>
