<svg width="24" height="24" viewBox="0 0 24 24" fill="none" xmlns="http://www.w3.org/2000/svg">
    <path d="M22 13.75C22 9.19365 18.3063 5.5 13.75 5.5C9.19365 5.5 5.5 9.19365 5.5 13.75V21.1909C5.5 21.5626 5.8912 21.8044 6.22365 21.6381L8.7992 20.35C10.1782 21.3861 11.8924 22 13.75 22C18.3063 22 22 18.3063 22 13.75Z" stroke="#121219" stroke-width="2"/>
    <path d="M18.3356 14.6673C18.8419 14.6673 19.2523 14.2569 19.2523 13.7507C19.2523 13.2444 18.8419 12.834 18.3356 12.834C17.8294 12.834 17.4189 13.2444 17.4189 13.7507C17.4189 14.2569 17.8294 14.6673 18.3356 14.6673Z" fill="#121219"/>
    <path d="M13.7526 14.6673C14.2589 14.6673 14.6693 14.2569 14.6693 13.7507C14.6693 13.2444 14.2589 12.834 13.7526 12.834C13.2463 12.834 12.8359 13.2444 12.8359 13.7507C12.8359 14.2569 13.2463 14.6673 13.7526 14.6673Z" fill="#121219"/>
    <path d="M9.1696 14.6673C9.67586 14.6673 10.0863 14.2569 10.0863 13.7507C10.0863 13.2444 9.67586 12.834 9.1696 12.834C8.66334 12.834 8.25293 13.2444 8.25293 13.7507C8.25293 14.2569 8.66334 14.6673 9.1696 14.6673Z" fill="#121219"/>
    <path d="M5.2992 16.85L2.72365 18.1381C2.3912 18.3044 2 18.0626 2 17.6909V10.25C2 5.69365 5.69365 2 10.25 2C13.456 2 16.2349 3.82874 17.6004 6.5" stroke="#121219" stroke-width="2"/>
</svg>
