<svg width="25" height="24" viewBox="0 0 25 24" fill="none" xmlns="http://www.w3.org/2000/svg">
    <g opacity="0.8">
        <path d="M9.2334 20C9.2334 20.625 9.30684 21.3497 9.95833 21.8021C10.6098 22.2546 11.41 22.5 12.2334 22.5C13.0568 22.5 13.857 22.2546 14.5085 21.8021C15.16 21.3497 15.2334 20.625 15.2334 20" stroke="#574B78" stroke-width="2" stroke-linecap="round" stroke-linejoin="round"/>
        <path fill-rule="evenodd" clip-rule="evenodd" d="M5.73235 10.5C5.73235 6.91015 8.6425 4 12.2323 4V2C7.53793 2 3.73235 5.80558 3.73235 10.5V13.6074C3.73235 14.295 3.50934 14.964 3.09678 15.5141L2.83371 15.8648C2.54891 16.2446 2.0726 16.9809 2.25237 17.8658C2.53394 19.2517 3.744 19.721 4.65563 19.8851C5.4107 20.021 6.28843 20.0109 6.96157 20.0032C7.10504 20.0015 7.2393 20 7.36101 20H12.2323V18H7.36101C7.19095 18 7.02239 18.0016 6.85606 18.0032C6.18933 18.0095 5.5584 18.0155 5.00996 17.9168C4.32958 17.7943 4.24059 17.6006 4.21341 17.4728C4.21401 17.4643 4.2175 17.4405 4.2345 17.3965C4.26679 17.3129 4.33029 17.2027 4.43371 17.0648L4.69678 16.7141C5.36898 15.8178 5.73235 14.7277 5.73235 13.6074V10.5ZM4.21337 17.4765C4.21333 17.4765 4.21328 17.4758 4.21333 17.4743L4.21337 17.4765Z" fill="#574B78"/>
        <path fill-rule="evenodd" clip-rule="evenodd" d="M18.7332 10.5C18.7332 6.91015 15.8222 4 12.2323 4V2C16.9268 2 20.7332 5.80558 20.7332 10.5V13.6074C20.7332 14.295 20.9562 14.964 21.3687 15.5141L21.6318 15.8648C21.9166 16.2446 22.3929 16.9809 22.2131 17.8658C21.9316 19.2517 20.7215 19.721 19.8099 19.8851C19.0548 20.021 18.1771 20.0109 17.5039 20.0032C17.3605 20.0015 17.2262 20 17.1045 20H12.2323V18H17.1045C17.2746 18 17.4431 18.0016 17.6094 18.0032C18.2762 18.0095 18.9071 18.0155 19.4555 17.9168C20.1359 17.7943 20.2249 17.6006 20.2521 17.4728C20.2515 17.4643 20.248 17.4405 20.231 17.3965C20.1987 17.3129 20.1352 17.2027 20.0318 17.0648L19.7687 16.7141C19.0965 15.8178 18.7332 14.7277 18.7332 13.6074V10.5ZM20.2521 17.4765C20.2522 17.4765 20.2522 17.4758 20.2522 17.4743L20.2521 17.4765Z" fill="#574B78"/>
    </g>
</svg>
