<svg width="25" height="24" viewBox="0 0 25 24" fill="none" xmlns="http://www.w3.org/2000/svg">
    <path d="M20.219 19.2481L19.2267 19.124L20.219 19.2481ZM21.2892 10.6861L22.2815 10.8101L21.2892 10.6861ZM3.78873 19.3721L2.71848 10.8101L4.70303 10.562L5.77329 19.124L3.78873 19.3721ZM22.2815 10.8101L21.2113 19.3721L19.2267 19.124L20.297 10.562L22.2815 10.8101ZM18.2344 22H6.76556V20H18.2344V22ZM19.8008 10L5.19917 10V8L19.8008 8V10ZM21.2113 19.3721C21.0236 20.8734 19.7474 22 18.2344 22V20C18.7388 20 19.1642 19.6245 19.2267 19.124L21.2113 19.3721ZM20.297 10.562C20.3343 10.2636 20.1016 10 19.8008 10V8C21.3046 8 22.468 9.31795 22.2815 10.8101L20.297 10.562ZM2.71848 10.8101C2.53196 9.31796 3.69543 8 5.19917 8V10C4.89842 10 4.66573 10.2636 4.70303 10.562L2.71848 10.8101ZM5.77329 19.124C5.83584 19.6245 6.26124 20 6.76556 20V22C5.25259 22 3.97639 20.8734 3.78873 19.3721L5.77329 19.124Z" fill="#888888"/>
    <path d="M6.5 9L10.9815 3.7716C11.7797 2.84038 13.2203 2.84038 14.0185 3.7716L18.5 9H6.5Z" stroke="#888888" stroke-width="2" stroke-linecap="round"/>
    <path d="M8 12.5V17.5" stroke="#888888" stroke-width="2" stroke-linecap="round"/>
    <path d="M12.5 12.5V17.5" stroke="#888888" stroke-width="2" stroke-linecap="round"/>
    <path d="M17 12.5V17.5" stroke="#888888" stroke-width="2" stroke-linecap="round"/>
</svg>
