<svg width="25" height="25" viewBox="0 0 25 25" fill="none" xmlns="http://www.w3.org/2000/svg">
    <path d="M18.9258 19.713H5.92578C4.82121 19.713 3.92578 18.8175 3.92578 17.713V5.71295C3.92578 4.0561 5.26893 2.71295 6.92578 2.71295H17.9258C19.5826 2.71295 20.9258 4.0561 20.9258 5.71295V17.713C20.9258 18.8175 20.0304 19.713 18.9258 19.713Z" stroke="#6B46D6" stroke-width="2"/>
    <path d="M19.4258 20.713C19.4258 20.1607 18.9781 19.713 18.4258 19.713C17.8735 19.713 17.4258 20.1607 17.4258 20.713C17.4258 21.2652 17.8735 21.713 18.4258 21.713C18.9781 21.713 19.4258 21.2652 19.4258 20.713Z" stroke="#6B46D6" stroke-width="2"/>
    <path d="M7.42578 20.713C7.42578 20.1607 6.97807 19.713 6.42578 19.713C5.8735 19.713 5.42578 20.1607 5.42578 20.713C5.42578 21.2652 5.8735 21.713 6.42578 21.713C6.97807 21.713 7.42578 21.2652 7.42578 20.713Z" stroke="#6B46D6" stroke-width="2"/>
    <path d="M7.17578 16.963C7.86614 16.963 8.42578 16.4033 8.42578 15.713C8.42578 15.0226 7.86614 14.463 7.17578 14.463C6.48543 14.463 5.92578 15.0226 5.92578 15.713C5.92578 16.4033 6.48543 16.963 7.17578 16.963Z" fill="#6B46D6"/>
    <path d="M3.42578 9.71295C3.97807 9.71295 4.42578 9.26524 4.42578 8.71295C4.42578 8.16067 3.97807 7.71295 3.42578 7.71295C2.8735 7.71295 2.42578 8.16067 2.42578 8.71295C2.42578 9.26524 2.8735 9.71295 3.42578 9.71295Z" fill="#6B46D6"/>
    <path d="M17.6758 16.963C18.3661 16.963 18.9258 16.4033 18.9258 15.713C18.9258 15.0226 18.3661 14.463 17.6758 14.463C16.9854 14.463 16.4258 15.0226 16.4258 15.713C16.4258 16.4033 16.9854 16.963 17.6758 16.963Z" fill="#6B46D6"/>
    <path d="M21.4258 9.71295C21.9781 9.71295 22.4258 9.26524 22.4258 8.71295C22.4258 8.16067 21.9781 7.71295 21.4258 7.71295C20.8735 7.71295 20.4258 8.16067 20.4258 8.71295C20.4258 9.26524 20.8735 9.71295 21.4258 9.71295Z" fill="#6B46D6"/>
    <path d="M20.4258 11.713L4.42578 11.713" stroke="#6B46D6" stroke-width="2" stroke-linecap="round" stroke-linejoin="round"/>
</svg>
