<svg width="25" height="24" viewBox="0 0 25 24" fill="none" xmlns="http://www.w3.org/2000/svg">
    <g clip-path="url(#clip0_691_21736)">
        <path d="M0.5 12.0023C0.499486 10.6811 0.935095 9.39664 1.73922 8.34829C2.54335 7.29994 3.67103 6.54632 4.94726 6.2044C6.22349 5.86248 7.57689 5.95137 8.79743 6.45728C10.018 6.96318 11.0374 7.85782 11.6975 9.00234H21.5C21.5986 9.00216 21.6962 9.02141 21.7873 9.05899C21.8784 9.09657 21.9612 9.15173 22.031 9.22134L24.281 11.4713C24.3508 11.541 24.4063 11.6238 24.4441 11.7149C24.4819 11.806 24.5013 11.9037 24.5013 12.0023C24.5013 12.101 24.4819 12.1987 24.4441 12.2898C24.4063 12.3809 24.3508 12.4637 24.281 12.5333L22.031 14.7833C21.9613 14.8532 21.8786 14.9086 21.7874 14.9464C21.6963 14.9842 21.5987 15.0037 21.5 15.0037C21.4013 15.0037 21.3037 14.9842 21.2126 14.9464C21.1214 14.9086 21.0387 14.8532 20.969 14.7833L20 13.8128L19.031 14.7833C18.9613 14.8532 18.8786 14.9086 18.7874 14.9464C18.6963 14.9842 18.5987 15.0037 18.5 15.0037C18.4013 15.0037 18.3037 14.9842 18.2126 14.9464C18.1214 14.9086 18.0387 14.8532 17.969 14.7833L17 13.8128L16.031 14.7833C15.9613 14.8532 15.8786 14.9086 15.7874 14.9464C15.6963 14.9842 15.5987 15.0037 15.5 15.0037C15.4013 15.0037 15.3037 14.9842 15.2126 14.9464C15.1214 14.9086 15.0387 14.8532 14.969 14.7833L14 13.8128L13.031 14.7833C12.9612 14.8529 12.8784 14.9081 12.7873 14.9457C12.6962 14.9833 12.5986 15.0025 12.5 15.0023H11.6975C11.0374 16.1469 10.018 17.0415 8.79743 17.5474C7.57689 18.0533 6.22349 18.1422 4.94726 17.8003C3.67103 17.4584 2.54335 16.7047 1.73922 15.6564C0.935095 14.608 0.499486 13.3236 0.5 12.0023ZM6.5 7.50234C5.69471 7.50264 4.90426 7.71904 4.2111 8.12895C3.51795 8.53886 2.94749 9.12727 2.55924 9.83278C2.17099 10.5383 1.97918 11.3351 2.00381 12.14C2.02845 12.9449 2.26862 13.7285 2.69929 14.4089C3.12995 15.0894 3.73532 15.6418 4.45224 16.0085C5.16917 16.3753 5.97137 16.543 6.77518 16.494C7.57898 16.4451 8.35492 16.1813 9.02205 15.7303C9.68919 15.2793 10.2231 14.6575 10.568 13.9298C10.6289 13.802 10.7247 13.694 10.8445 13.6183C10.9642 13.5427 11.1029 13.5025 11.2445 13.5023H12.1895L13.469 12.2213C13.5387 12.1515 13.6214 12.0961 13.7126 12.0583C13.8037 12.0205 13.9013 12.001 14 12.001C14.0987 12.001 14.1963 12.0205 14.2874 12.0583C14.3786 12.0961 14.4613 12.1515 14.531 12.2213L15.5 13.1918L16.469 12.2213C16.5387 12.1515 16.6214 12.0961 16.7126 12.0583C16.8037 12.0205 16.9013 12.001 17 12.001C17.0987 12.001 17.1963 12.0205 17.2874 12.0583C17.3786 12.0961 17.4613 12.1515 17.531 12.2213L18.5 13.1918L19.469 12.2213C19.5387 12.1515 19.6214 12.0961 19.7126 12.0583C19.8037 12.0205 19.9013 12.001 20 12.001C20.0987 12.001 20.1963 12.0205 20.2874 12.0583C20.3786 12.0961 20.4613 12.1515 20.531 12.2213L21.5 13.1918L22.6895 12.0023L21.1895 10.5023H11.2445C11.1029 10.5022 10.9642 10.462 10.8445 10.3864C10.7247 10.3107 10.6289 10.2027 10.568 10.0748C10.203 9.3049 9.62698 8.65441 8.90684 8.199C8.18669 7.7436 7.35206 7.50201 6.5 7.50234Z" fill="#888888"/>
        <path d="M6.5 12.0023C6.5 12.4001 6.34196 12.7817 6.06066 13.063C5.77936 13.3443 5.39782 13.5023 5 13.5023C4.60218 13.5023 4.22064 13.3443 3.93934 13.063C3.65804 12.7817 3.5 12.4001 3.5 12.0023C3.5 11.6045 3.65804 11.223 3.93934 10.9417C4.22064 10.6604 4.60218 10.5023 5 10.5023C5.39782 10.5023 5.77936 10.6604 6.06066 10.9417C6.34196 11.223 6.5 11.6045 6.5 12.0023Z" fill="#888888"/>
    </g>
    <defs>
        <clipPath id="clip0_691_21736">
            <rect width="24" height="24" fill="white" transform="translate(0.5)"/>
        </clipPath>
    </defs>
</svg>
