<svg width="25" height="24" viewBox="0 0 25 24" fill="none" xmlns="http://www.w3.org/2000/svg">
    <path d="M10.25 8V7M10.25 12.5V11.5M10.25 17V16M5.45 4H19.05C20.1701 4 20.7302 4 21.158 4.21799C21.5343 4.40973 21.8403 4.71569 22.032 5.09202C22.25 5.51984 22.25 6.0799 22.25 7.2V8.5C20.317 8.5 18.75 10.067 18.75 12C18.75 13.933 20.317 15.5 22.25 15.5V16.8C22.25 17.9201 22.25 18.4802 22.032 18.908C21.8403 19.2843 21.5343 19.5903 21.158 19.782C20.7302 20 20.1701 20 19.05 20H5.45C4.3299 20 3.76984 20 3.34202 19.782C2.96569 19.5903 2.65973 19.2843 2.46799 18.908C2.25 18.4802 2.25 17.9201 2.25 16.8V15.5C4.183 15.5 5.75 13.933 5.75 12C5.75 10.067 4.183 8.5 2.25 8.5V7.2C2.25 6.0799 2.25 5.51984 2.46799 5.09202C2.65973 4.71569 2.96569 4.40973 3.34202 4.21799C3.76984 4 4.3299 4 5.45 4Z" stroke="#888888" stroke-width="2" stroke-linecap="round" stroke-linejoin="round"/>
</svg>
