<svg width="59" height="59" viewBox="0 0 59 59" fill="none" xmlns="http://www.w3.org/2000/svg">
    <g filter="url(#filter0_d_553_13058)">
        <rect x="15" y="13" width="29" height="29" rx="14.5" fill="white" shape-rendering="crispEdges"/>
        <path d="M26.8633 23.2168L26.9143 22.9107C27.075 21.9463 27.9094 21.2395 28.8871 21.2395L30.1122 21.2395C31.0899 21.2395 31.9243 21.9463 32.085 22.9107L32.136 23.2168" stroke="#121219" stroke-width="1.31818" stroke-linecap="round"/>
        <path d="M26.8635 23.2168H24.2272C23.4992 23.2168 22.909 23.807 22.909 24.535V32.4441C22.909 33.1721 23.4992 33.7623 24.2272 33.7623H34.0908C35.1954 33.7623 36.0908 32.8668 36.0908 31.7622V24.535C36.0908 23.807 35.5006 23.2168 34.7726 23.2168H32.1363" stroke="#121219" stroke-width="1.31818" stroke-linecap="round"/>
        <path d="M32.2758 28.5445C32.2758 27.0076 31.0334 25.7617 29.5007 25.7617C27.968 25.7617 26.7256 27.0076 26.7256 28.5445C26.7256 30.0815 27.968 31.3274 29.5007 31.3274C31.0334 31.3274 32.2758 30.0815 32.2758 28.5445Z" stroke="#121219" stroke-width="1.31818"/>
    </g>
    <defs>
        <filter id="filter0_d_553_13058" x="0" y="0" width="59" height="59" filterUnits="userSpaceOnUse" color-interpolation-filters="sRGB">
            <feFlood flood-opacity="0" result="BackgroundImageFix"/>
            <feColorMatrix in="SourceAlpha" type="matrix" values="0 0 0 0 0 0 0 0 0 0 0 0 0 0 0 0 0 0 127 0" result="hardAlpha"/>
            <feOffset dy="2"/>
            <feGaussianBlur stdDeviation="7.5"/>
            <feComposite in2="hardAlpha" operator="out"/>
            <feColorMatrix type="matrix" values="0 0 0 0 0.533333 0 0 0 0 0.533333 0 0 0 0 0.533333 0 0 0 0.27 0"/>
            <feBlend mode="normal" in2="BackgroundImageFix" result="effect1_dropShadow_553_13058"/>
            <feBlend mode="normal" in="SourceGraphic" in2="effect1_dropShadow_553_13058" result="shape"/>
        </filter>
    </defs>
</svg>
